<?xml version="1.0" encoding="UTF-8"?>
<svg xmlns="http://www.w3.org/2000/svg" viewBox="0 0 620 385">
  <defs>
    <style>
      .cls-1 {
        fill: #262626;
        stroke-width: 0px;
      }
    </style>
  </defs>
  <g id="Layer_2_copy" data-name="Layer 2 copy">
    <g>
      <path class="cls-1" d="M463.33,281.45c-41.78,41.97-115.93,73.47-200.41,73.47-130.85,0-236.93-75.55-236.93-168.75S132.06,17.42,262.92,17.42c107.76,0,198.72,51.24,227.47,121.38.65,1.59,2.31,2.53,4,2.21h0c2.26-.42,3.56-2.82,2.67-4.95-30.21-71.72-123.61-123.98-234.14-123.98C127.93,12.08,18.5,90.02,18.5,186.17s109.43,174.08,244.42,174.08c89.5,0,171.43-36.82,213.84-82.5l-13.43,3.7Z"/>
      <path class="cls-1" d="M459.09,277.21c-28.09,28.02-64.73,46.69-102.45,58.06-43.57,13.13-89.97,16.79-135.1,11.08-70.02-8.85-148.54-43.71-179.1-111.65-12.87-28.62-13.65-61.23-2.67-90.55,11.6-30.96,35.44-56.37,62.43-74.76,68.63-46.76,160.87-56.63,240.2-36.05,37.23,9.66,73.46,26.57,102.21,52.46,12.59,11.34,23.68,24.31,32.19,38.99,1.99,3.44,3.85,6.96,5.55,10.55,2.03,4.3,3.16,9.19,8.06,11.06,3.91,1.5,8.3.21,10.87-3.07,3.45-4.4,1.58-9.04-.45-13.54-31.52-69.81-110.7-107.81-182.69-119.29-79.72-12.71-168.9,1.1-234.77,50.07-26.99,20.07-49.71,46.08-61.92,77.72-11.47,29.69-11.84,63.14-1,93.07,24.91,68.8,96.17,109.9,164.06,125.9,85.32,20.1,180.98,6.7,255.06-41.19,15.04-9.72,29.19-20.99,41.44-34.08,4.02-4.3.08-11.66-5.84-10.03-4.48,1.23-8.95,2.47-13.43,3.7-7.44,2.05-4.28,13.63,3.19,11.57,4.48-1.23,8.95-2.47,13.43-3.7-1.95-3.34-3.89-6.69-5.84-10.03-26.66,28.5-62.09,48.33-98.57,61.38-43.22,15.47-89.36,21.73-135.13,18.53-71.61-5.01-151.44-34.28-192.36-96.8-17.02-26-25.43-57.29-20.67-88.27,4.83-31.4,21.86-59.24,44.47-81.09C127.04,32.36,212.58,13.21,289.35,19.09c73.39,5.62,156.1,37.24,194.59,104.05,1.98,3.44,3.83,6.96,5.52,10.56.34.71.67,1.43.99,2.15l.48,1.08c.35,1.55.73,1.45,1.16-.31l.69-1.39c2.84,1.68,3.62,1.5,2.32-.54-.23-1.09-.95-2.22-1.42-3.25-3.37-7.46-7.41-14.61-12-21.39-9.6-14.21-21.36-26.89-34.54-37.85-29.94-24.89-66.19-41.54-103.82-50.99C264.39,1.36,173.75,10.4,103.93,53.95c-28.39,17.71-53.87,41.8-69.12,71.91-14.38,28.39-18.67,60.97-10.86,91.93,17.52,69.49,86.05,113.28,151.2,131.4,82.21,22.88,176.97,13.15,250.54-31.15,15.14-9.11,29.38-19.86,41.9-32.35,5.47-5.46-3.01-13.95-8.49-8.49Z"/>
    </g>
    <path class="cls-1" d="M192.74,188.81c0-.15,0-.29,0-.44,0-19.24-8.09-33.09-12.79-39.52-1.62-2.32-2.79-3.65-2.96-3.84-4.5-5.03-12.23-5.47-17.26-.97-5.03,4.5-5.47,12.23-.97,17.26.01.01.14.17.36.44l-.05.05-.09-.09c.08.08.51.57,1.14,1.4,2.6,3.73,8.04,13.04,8.16,25.7-.12,12.62-5.54,21.92-8.15,25.65-.63.84-1.07,1.33-1.15,1.41l.09-.09.05.05c-.22.28-.35.43-.36.44-4.5,5.03-4.07,12.76.97,17.26,5.03,4.5,12.76,4.07,17.26-.97.17-.19,1.34-1.53,2.97-3.86,4.7-6.44,12.77-20.28,12.77-39.5,0-.14,0-.27,0-.41Z"/>
    <path class="cls-1" d="M210.74,258c-2.54,0-5.1-.8-7.28-2.46-5.27-4.02-6.27-11.55-2.25-16.82.09-.13,13.79-18.89,13.79-49.52s-13.9-51.3-14.04-51.5c-3.83-5.41-2.56-12.9,2.85-16.73,5.4-3.84,12.9-2.56,16.73,2.85.75,1.06,18.46,26.48,18.46,65.39s-17.95,63.09-18.71,64.09c-2.36,3.09-5.93,4.72-9.54,4.72Z"/>
    <path class="cls-1" d="M254.76,280.9c-2.5,0-5.02-.78-7.17-2.39-5.31-3.97-6.4-11.49-2.43-16.79.17-.23,19.82-27.55,19.82-72.2s-19.87-74.54-20.07-74.83c-3.78-5.45-2.42-12.92,3.02-16.7,5.45-3.78,12.92-2.42,16.7,3.02.99,1.43,24.35,35.71,24.35,88.51s-23.59,85.22-24.59,86.56c-2.36,3.15-5.97,4.82-9.62,4.82Z"/>
    <path class="cls-1" d="M298.15,304.67c-2.5,0-5.02-.78-7.17-2.39-5.31-3.97-6.4-11.49-2.43-16.79.24-.33,26.38-36.5,26.38-95.64s-26.37-98.58-26.64-98.97c-3.74-5.46-2.37-12.92,3.07-16.68,5.45-3.75,12.89-2.41,16.66,3.03,1.26,1.82,30.9,45.33,30.9,112.62s-29.88,108.3-31.15,110c-2.36,3.15-5.97,4.82-9.62,4.82Z"/>
  </g>
  <g id="Layer_4_copy_2" data-name="Layer 4 copy 2">
    <path class="cls-1" d="M553.22,207.61l-21.92-33.18c-8.51-12.92-18.14-27.58-34.35-26.94-19.54.74-35.12,1.25-35.28,1.25-2.75.07-5.07-2.08-5.16-4.84-.09-2.76,2.08-5.07,4.84-5.16.16,0,15.71-.51,35.22-1.25,21.87-.83,33.62,17.06,43.09,31.43l1.03,1.56,65.75,99.5c1.52,2.3.89,5.41-1.42,6.93-.85.56-1.81.83-2.75.83-1.62,0-3.21-.79-4.18-2.24l-44.86-67.89"/>
    <path class="cls-1" d="M539.5,309.25c-15.46,0-23.92-6.14-28.47-9.44-.71-.52-1.39-1.01-1.76-1.22-4.17-2.38-16.52-14.34-20.49-25.69-2.22-6.34-3.77-9.33-5.91-13.48-1.1-2.13-2.35-4.54-3.89-7.79-3.25-6.85-14.58-16.11-18.68-19.1l-.27-.22c-2.09-1.76-51.16-43.14-59.13-50.37-7.71-6.98-9.31-11.45-10.28-15.42-.06-.25-.12-.49-.18-.72-.87-3.19-1.99-11.6,6.35-20.9,8.62-9.62,23.48-4.6,24.11-4.39l.45.15,86.41,49.74c2.39,1.38,3.22,4.43,1.84,6.83-1.38,2.39-4.43,3.22-6.83,1.84l-85.51-49.22c-1.75-.49-9.39-2.33-13.02,1.72-5.06,5.64-4.59,9.99-4.15,11.6.08.31.16.63.24.96.54,2.18,1.2,4.89,7.29,10.4,7.65,6.93,55.87,47.6,58.74,50.02,2.29,1.68,16.89,12.69,21.67,22.79,1.46,3.08,2.67,5.41,3.73,7.47,2.24,4.34,4.02,7.76,6.47,14.77,3.1,8.87,13.63,18.95,16.01,20.31.84.48,1.69,1.1,2.67,1.81,3.88,2.82,10.38,7.53,22.6,7.53,2.76,0,5,2.24,5,5s-2.24,5-5,5Z"/>
    <path class="cls-1" d="M422.37,201.92c-.39-.07-39.3-7.01-48.88-8.48-3.99-.61-7.23-2.52-9.36-5.5-3.78-5.31-2.69-12.08-2.55-12.84.34-1.93,8.53-47.89,10.51-58.06,1.13-5.77,4.08-8.71,6.36-10.16,4.45-2.83,9.28-2.05,10.51-1.79,2.76.48,51.09,8.81,63.4,10.98,6.39,1.13,9.59,4.46,11.15,7.06,3.53,5.89,1.79,12.81,1.32,14.4l-5.96,26.31-9.75-2.21,6.12-26.95c.31-.99.93-4.38-.32-6.44-.27-.44-1.08-1.76-4.29-2.33-12.59-2.22-62.97-10.91-63.48-11l-.36-.08h0s-1.78-.32-3.01.5c-.89.59-1.52,1.8-1.87,3.61-1.97,10.09-10.4,57.44-10.48,57.92-.14.85-.29,3.69.87,5.28.34.47,1,1.13,2.72,1.4,9.7,1.49,47.51,8.23,49.12,8.52l-1.76,9.84Z"/>
    <path class="cls-1" d="M462.75,257.75c-3.09,0-7.54-2.48-10.73-4.56l-.18-.13c-7.72-5.54-33.06-23.74-34.84-25.27-2.86-2.45-4.95-7.1-5.74-9.46-1.5-4.51-.4-9.74,3.27-15.52,4.34-6.82,13.16-6.3,17.81-4.88l1.87.47-2.43,9.7-2.29-.58c-1.35-.41-5.46-1.02-6.53.67-1.93,3.03-2.72,5.51-2.23,6.98.67,2.01,2.08,4.45,2.76,5.04,1.54,1.26,21.67,15.77,34.07,24.67,1.98,1.28,4.45,2.58,5.42,2.87,1.92-.11,9.39-1.41,15.53-3.68l3.47,9.38c-7.11,2.63-16.14,4.31-19.24,4.31Z"/>
    <path class="cls-1" d="M470.79,282.3c-3.4,0-8.26-.82-14.66-3.81-11.04-5.15-28.66-12.6-28.83-12.68l-.54-.23-.48-.35c-.69-.5-6.7-5.19-7.03-14.09-.36-9.67,10.05-17.54,16.97-17.93l.31-.02,3.98.27c2.75.19,4.84,2.57,4.65,5.33-.19,2.75-2.59,4.83-5.33,4.65l-3.27-.22c-2.26.34-7.44,4-7.31,7.55.12,3.32,1.93,5.41,2.66,6.13,3.44,1.46,18.53,7.89,28.46,12.52,7.44,3.47,11.24,2.9,12.03,2.72l.61-.41.32.11,18.83-4.58c2.68-.65,5.39.99,6.04,3.68.65,2.68-.99,5.39-3.68,6.04l-18.48,4.5c-.96.36-2.69.82-5.24.82Z"/>
  </g>
</svg>