<?xml version="1.0" encoding="utf-8"?>
<svg xmlns="http://www.w3.org/2000/svg" viewBox="155.9919 0 188.608 498.9566" width="188.608px" height="498.957px">
  <g id="SVGRepo_iconCarrier" transform="matrix(1, 0, 0, 1, 2.214877128601074, 4.877562999725342)">
    <g transform="matrix(1, 0, 0, 1, 0, -250.575562)">
      <path style="fill:#D3D3D3;" d="M 229.787 245.698 L 229.787 494.306 C 235.828 494.746 241.926 494.979 248.077 494.979 C 253.448 494.979 258.773 494.789 264.06 494.452 L 264.06 245.698 L 229.787 245.698 Z"/>
      <path style="fill:#EAEAEA;" d="M 230.379 245.698 L 230.379 494.306 C 236.42 494.746 242.518 494.979 248.669 494.979 L 248.669 245.698 L 230.379 245.698 Z"/>
    </g>
    <g>
      <g/>
    </g>
    <path style="fill:#E5E5E5;" d="M 248.081 129.082 C 196.002 129.082 153.777 154.034 153.777 184.814 L 153.777 438.347 C 153.777 469.127 196.002 494.079 248.081 494.079 C 300.16 494.079 342.385 469.127 342.385 438.347 L 342.385 184.814 C 342.385 154.034 300.16 129.082 248.081 129.082 Z"/>
    <path style="fill:#3B3B3B;" d="M 248.081 137.899 C 203.031 137.899 166.506 161.484 166.506 190.578 L 166.506 430.218 C 166.506 459.312 203.031 482.897 248.081 482.897 C 293.131 482.897 329.656 459.312 329.656 430.218 L 329.656 190.578 C 329.656 161.484 293.131 137.899 248.081 137.899 Z"/>
    <circle style="fill: rgb(255, 98, 66);" cx="248.081" cy="212.398" r="43"/>
    <path style="fill: rgb(237, 85, 53);" d="M 274.486 185.992 C 259.903 171.409 236.258 171.409 221.675 185.992 C 207.091 200.575 207.091 224.22 221.675 238.804 C 236.259 253.387 289.07 200.576 274.486 185.992 Z"/>
    <circle style="fill: rgb(134, 191, 155);" cx="248.081" cy="412.898" r="43"/>
    <circle style="fill: rgb(234, 210, 149);" cx="248.081" cy="312.898" r="43"/>
    <path style="fill: rgb(237, 224, 169);" d="M 274.486 286.992 C 259.903 272.409 236.258 272.409 221.675 286.992 C 207.091 301.575 207.091 325.22 221.675 339.804 C 236.259 354.387 289.07 301.576 274.486 286.992 Z"/>
    <path style="fill: rgb(146, 206, 166);" d="M 274.486 386.992 C 259.903 372.409 236.258 372.409 221.675 386.992 C 207.091 401.575 207.091 425.22 221.675 439.804 C 236.259 454.387 289.07 401.576 274.486 386.992 Z"/>
  </g>
</svg>